<?xml version="1.0" encoding="UTF-8" standalone="no"?>
<!-- Created with Inkscape (http://www.inkscape.org/) -->

<svg
   xmlns:dc="http://purl.org/dc/elements/1.1/"
   xmlns:cc="http://creativecommons.org/ns#"
   xmlns:rdf="http://www.w3.org/1999/02/22-rdf-syntax-ns#"
   xmlns:svg="http://www.w3.org/2000/svg"
   xmlns="http://www.w3.org/2000/svg"
   xmlns:sodipodi="http://sodipodi.sourceforge.net/DTD/sodipodi-0.dtd"
   xmlns:inkscape="http://www.inkscape.org/namespaces/inkscape"
   width="310.03375"
   height="110.45713"
   viewBox="0 0 82.029762 29.225117"
   version="1.1"
   id="svg8"
   inkscape:version="0.92.3 (2405546, 2018-03-11)"
   sodipodi:docname="bme.svg">
  <defs
     id="defs2" />
  <sodipodi:namedview
     id="base"
     pagecolor="#00ffff"
     bordercolor="#666666"
     borderopacity="1.0"
     inkscape:pageopacity="0"
     inkscape:pageshadow="2"
     inkscape:zoom="0.35"
     inkscape:cx="461.55001"
     inkscape:cy="-141.91429"
     inkscape:document-units="px"
     inkscape:current-layer="layer1"
     showgrid="false"
     units="px"
     fit-margin-top="0.5"
     fit-margin-left="0.5"
     fit-margin-right="0.5"
     fit-margin-bottom="0.5"
     inkscape:window-width="1920"
     inkscape:window-height="1001"
     inkscape:window-x="-9"
     inkscape:window-y="-9"
     inkscape:window-maximized="1" />
  <metadata
     id="metadata5">
    <rdf:RDF>
      <cc:Work
         rdf:about="">
        <dc:format>image/svg+xml</dc:format>
        <dc:type
           rdf:resource="http://purl.org/dc/dcmitype/StillImage" />
        <dc:title></dc:title>
      </cc:Work>
    </rdf:RDF>
  </metadata>
  <g
     inkscape:label="Layer 1"
     inkscape:groupmode="layer"
     id="layer1"
     transform="translate(16.285106,-82.060052)">
    <g
       id="g76"
       transform="matrix(0.08867279,0,0,0.08867279,-16.170549,82.192344)">
	<polygon
   id="polygon12"
   points="808.7,251.2 842.9,196.2 922.3,326 854.8,326 "
   class="st0"
   style="fill:#1b2c4c" />

	<polygon
   id="polygon14"
   points="922.3,0 842.9,128.2 808.2,69.9 850.6,0 "
   class="st0"
   style="fill:#1b2c4c" />

	<polygon
   id="polygon16"
   points="748.7,0 845.8,163 744.6,326 677.2,326 759.3,192.3 661.4,192.3 661.4,133.7 759.3,133.7 677.2,0 "
   class="st1"
   style="fill:#8e8e90" />

	<polygon
   id="polygon18"
   points="541.4,145.1 456.6,145.1 456.6,95.3 574.3,95.3 574.3,58.7 417.9,58.7 417.9,145.1 456.6,145.1 456.6,181.8 417.9,181.8 417.9,267.7 574.3,267.7 574.3,231.1 456.6,231.1 456.6,181.8 541.4,181.8 "
   class="st0"
   style="fill:#1b2c4c" />

	<g
   id="g22">
		<path
   id="path20"
   d="M 38.8,178.9 H 115 c 17.3,0 29.9,11.3 29.9,26.3 0,14.7 -12.7,26 -29.9,26 H 38.8 Z m 0,-83.6 h 68.6 c 17,0 26,11 26,23.3 0,12.7 -9,23.7 -26,23.7 H 38.8 Z M 0.2,267.7 h 119.1 c 36.6,0 64.2,-23.4 64.2,-60.6 0,-26.7 -15.7,-43.9 -37.3,-50.9 15.7,-7 25.7,-22.3 25.7,-41.6 0,-37.2 -28.2,-55.9 -60.2,-55.9 H 0.2 v 83.5 h 38.6 v 36.6 H 0.2 Z"
   class="st0"
   inkscape:connector-curvature="0"
   style="fill:#1b2c4c" />

	</g>

	<polygon
   id="polygon24"
   points="394.7,267.6 394.7,54.2 301.8,146.8 209,54.2 209,267.6 247.6,267.6 247.6,138.4 301.8,193.3 356,138.4 356,267.6 "
   class="st0"
   style="fill:#1b2c4c" />

	<g
   id="g74">
		<path
   id="path26"
   d="m 6.5,305.3 c 0.7,0 1.7,0 2.3,0 1.9,0 3.6,0.7 3.6,2.9 0,1.8 -1.4,2.6 -1.8,2.8 -0.9,0.4 -2.7,0.4 -4.1,0.4 z m 0,10.2 c 2.6,0 4.2,0 5.2,0.6 1,0.6 1.4,1.7 1.4,2.8 0,1.5 -0.9,2.5 -2.1,3 -1,0.3 -2.9,0.3 -4.4,0.3 z M 6.7,326 c 3.2,0.1 7.2,0.2 9.8,-1.6 2.3,-1.6 2.9,-3.9 2.9,-5.9 0,-2.2 -0.9,-4.3 -2.9,-5.2 -0.6,-0.3 -1.4,-0.5 -2.1,-0.6 1.2,-0.5 2.6,-1.1 3.4,-2.9 0.4,-0.8 0.6,-1.6 0.6,-2.4 0,-1.1 -0.3,-2.6 -1.4,-3.9 -1.5,-1.6 -3.7,-2 -7.1,-2 -1.2,0 -3.3,0 -4.5,0.1 l -4.8,0.1 -0.2,0.2 c 0.2,3.3 0.2,4.6 0.2,9.4 0,4.9 0,9.8 -0.1,14.8 l 0.3,0.1 h 5.9 z"
   class="st0"
   inkscape:connector-curvature="0"
   style="fill:#1b2c4c" />

		<path
   id="path28"
   d="m 37.8,307 c 0.7,0.8 1,1.8 1.2,2.8 0.3,1.3 0.4,2.6 0.4,3.4 0.1,5.2 -1,9 -5,9 -4.8,0 -5.1,-5.6 -5.1,-8.7 0,-4.2 1,-6.3 2.6,-7.3 0.9,-0.6 1.9,-0.7 2.5,-0.7 1.3,-0.1 2.6,0.5 3.4,1.5 m 5.5,-2.3 c -0.6,-0.8 -1.3,-1.4 -2.1,-1.9 -1.8,-1.2 -4.2,-1.8 -6.6,-1.8 -2.1,0 -4.3,0.4 -6.2,1.5 -4.2,2.4 -5,6.4 -5.3,7.9 -0.2,1.2 -0.3,2.4 -0.3,3.5 0,2.4 0.3,6.8 3.5,9.8 2.6,2.5 6.2,2.8 8,2.8 2.7,0 5.4,-0.7 7.4,-2.3 3.5,-2.8 4.1,-7.6 4.1,-10.5 0.1,-5.4 -1.7,-7.9 -2.5,-9"
   class="st0"
   inkscape:connector-curvature="0"
   style="fill:#1b2c4c" />

		<path
   id="path30"
   d="m 65.9,321.3 c -3.8,0.2 -6.8,0.3 -7.9,0.3 h -0.7 c -0.1,-9.2 0,-11.6 0.3,-19.9 l -0.2,-0.2 c -3,0.1 -3.8,0.1 -6.2,0.1 l -0.2,0.2 c 0.1,2.8 0.2,3.6 0.2,7.7 0,5.5 0,10.9 0,16.4 l 0.2,0.2 c 6.8,-0.1 8,-0.1 14.3,-0.1 l 0.2,-0.2 0.3,-4.4 z"
   class="st0"
   inkscape:connector-curvature="0"
   style="fill:#1b2c4c" />

		<path
   id="path32"
   d="m 78.5,311.1 c -2.9,-1.2 -4.4,-1.8 -4.4,-3.4 0,-1 1,-2.4 3.3,-2.4 2.6,0 4.2,1.1 5.5,2 l 0.3,-0.1 0.3,-4.6 -0.2,-0.2 c -1.5,-0.6 -3.1,-1.3 -6.4,-1.3 -6.5,0 -8.8,3.7 -8.8,7.4 0,4.2 3.3,5.8 5.2,6.6 l 1.1,0.5 c 2.4,1 4.2,1.9 4.2,3.7 0,1.3 -1.2,2.9 -4.2,2.9 -3.2,0 -4.9,-1.4 -5.9,-2.2 l -0.4,0.1 -0.3,4.9 0.2,0.3 c 0.4,0.1 0.8,0.3 1.1,0.4 0.8,0.3 2.8,0.9 5.4,0.9 1,0 3.7,-0.1 5.8,-1.1 2.9,-1.4 4.2,-4 4.2,-7 0,-2 -0.8,-4.1 -2.6,-5.5 -0.9,-0.7 -1.8,-1.1 -2.7,-1.5 z"
   class="st0"
   inkscape:connector-curvature="0"
   style="fill:#1b2c4c" />

		<path
   id="path34"
   d="m 94.7,315.3 1.7,-5.9 1.2,-4.1 1.1,4.5 1.3,5.4 z m 7.3,-13.8 c -3.3,0.1 -4,0.1 -7.7,0.1 l -0.3,0.2 c -1.8,5.9 -2.9,9.4 -8,24 l 0.1,0.3 h 5.4 l 0.2,-0.2 1.7,-6.3 h 7.5 l 1.5,6.4 0.2,0.2 c 2.5,-0.1 3.2,-0.1 6,-0.1 l 0.2,-0.3 c -4.2,-14.8 -4.7,-16.5 -6.7,-24.1 z"
   class="st0"
   inkscape:connector-curvature="0"
   style="fill:#1b2c4c" />

		<path
   id="path36"
   d="m 122,311.1 c -2.9,-1.2 -4.4,-1.8 -4.4,-3.4 0,-1 1,-2.4 3.3,-2.4 2.6,0 4.2,1.1 5.5,2 l 0.3,-0.1 0.3,-4.6 -0.1,-0.2 c -1.5,-0.6 -3.1,-1.3 -6.4,-1.3 -6.5,0 -8.8,3.7 -8.8,7.4 0,4.2 3.3,5.8 5.2,6.6 l 1.1,0.5 c 2.4,1 4.2,1.9 4.2,3.7 0,1.3 -1.2,2.9 -4.2,2.9 -3.2,0 -4.9,-1.4 -5.9,-2.2 l -0.3,0.1 -0.3,4.9 0.2,0.3 c 0.4,0.1 0.7,0.3 1.2,0.4 0.8,0.3 2.8,0.9 5.4,0.9 1,0 3.7,-0.1 5.8,-1.1 2.9,-1.4 4.2,-4 4.2,-7 0,-2 -0.8,-4.1 -2.6,-5.5 -0.9,-0.7 -1.8,-1.1 -2.7,-1.5 z"
   class="st0"
   inkscape:connector-curvature="0"
   style="fill:#1b2c4c" />

		<path
   id="path38"
   d="m 154.3,325.8 c -0.2,-4.5 -0.2,-5.7 -0.2,-10.2 l 7.7,-14 -0.1,-0.2 c -2.6,0.1 -3.3,0.1 -5.4,0.1 l -0.2,0.2 c -2,4.3 -3,6.2 -4.4,9 -0.4,-0.8 -2.2,-4.1 -2.5,-4.8 -0.6,-1.3 -1.1,-2.3 -2.1,-4.5 l -0.2,-0.2 c -3,0.2 -3.7,0.2 -6.6,0.2 l -0.1,0.3 c 1,1.8 5.6,9.6 6.5,11.2 0.5,0.9 1,1.8 1.5,2.7 v 1.1 c 0,3.4 -0.1,5 -0.2,9 l 0.2,0.2 c 2.9,-0.1 3.7,-0.1 6.1,-0.1 z"
   class="st0"
   inkscape:connector-curvature="0"
   style="fill:#1b2c4c" />

		<path
   id="path40"
   d="m 201,301.5 c -3.6,0.1 -4.2,0.1 -8,0.1 l -0.2,0.2 -1.6,5.6 -1.4,5 -1.6,6 -1.5,-6.2 -0.9,-3.9 -1.7,-6.7 -0.2,-0.2 c -3.7,0.1 -4.3,0.1 -8.2,0.1 l -0.2,0.2 c -0.4,10.4 -0.5,13 -1.3,24.2 l 0.2,0.2 c 2.2,-0.1 2.9,-0.1 4.9,-0.1 l 0.2,-0.2 0.1,-6.6 0.2,-6.7 0.1,-6.6 1.5,6.1 1.3,4.9 2.3,8.9 0.2,0.2 c 2.2,-0.1 2.7,-0.1 5.2,-0.1 l 0.2,-0.2 2,-7.4 1.4,-5.1 1.9,-7.3 v 6.2 l 0.1,5.3 v 8.3 l 0.2,0.2 c 2.4,-0.1 3.3,-0.1 6,-0.1 l 0.2,-0.2 c -0.2,-4 -0.5,-7.9 -0.6,-11.9 -0.1,-2.2 -0.2,-4.4 -0.3,-6.5 -0.2,-3.2 -0.2,-3.6 -0.2,-5.7 z"
   class="st0"
   inkscape:connector-curvature="0"
   style="fill:#1b2c4c" />

		<path
   id="path42"
   d="m 224.4,321.3 c -4.1,0.2 -5.1,0.2 -9.5,0.2 v -6.1 h 8.1 l 0.2,-0.2 0.2,-3.9 -0.2,-0.2 -8.4,0.1 v -5.5 c 3.9,0 4.7,0 8.9,0.1 l 0.2,-0.2 0.2,-4 -0.2,-0.1 h -15.2 l -0.2,0.2 c 0.2,3.4 0.3,4.6 0.3,13.9 0,4.4 -0.1,6.5 -0.2,10.2 l 0.2,0.1 H 224 l 0.3,-0.2 0.2,-4.2 z"
   class="st0"
   inkscape:connector-curvature="0"
   style="fill:#1b2c4c" />

		<path
   id="path44"
   d="m 235,305.7 c 0.5,0 1,0 1.5,0 1.4,0 4,0 4,3.1 0,1 -0.3,2.3 -1.5,3 -1,0.6 -2.2,0.7 -4,0.7 z m 1.6,10.8 c 2.3,4 2.8,5 5.1,9.5 l 0.3,0.2 c 1.1,-0.1 2.1,-0.1 3.2,-0.2 1.1,0 2.2,0 3.3,0 l 0.2,-0.4 c -1.3,-1.7 -1.7,-2.2 -4.2,-6.2 -1.1,-1.8 -1.7,-2.7 -2.5,-4.2 1.6,-0.7 4.7,-2.1 4.7,-6.6 0,-1.5 -0.4,-4.7 -3.3,-6.2 -1.8,-0.9 -3.7,-1 -7.7,-0.9 l -2.4,0.1 h -4.2 l -0.2,0.2 c 0.2,3.5 0.3,7.1 0.3,16.5 0,3.2 0,4.8 -0.1,7.7 l 0.2,0.2 c 2.5,-0.1 3.1,-0.1 5.9,-0.1 l 0.2,-0.2 c -0.3,-4 -0.3,-5.1 -0.3,-9.2 z"
   class="st0"
   inkscape:connector-curvature="0"
   style="fill:#1b2c4c" />

		<path
   id="path46"
   d="m 269.9,319.8 c -0.8,0.6 -2.6,1.9 -5.5,1.9 -3.9,0 -6.7,-2.9 -6.7,-7.9 0,-3 1,-8.2 6.7,-8.2 2.6,0 4,1 4.9,1.7 l 0.3,-0.1 0.3,-4.8 -0.1,-0.2 c -1.2,-0.5 -3.4,-1.3 -6.4,-1.3 -9,0 -12.1,6.9 -12.1,13 0,6.6 4.1,12.5 12.5,12.5 2.9,0 4.8,-0.7 5.9,-1.2 l 0.2,-0.2 0.2,-5.2 z"
   class="st0"
   inkscape:connector-curvature="0"
   style="fill:#1b2c4c" />

		<path
   id="path48"
   d="m 280.4,315.3 1.7,-5.9 1.2,-4.1 1,4.5 1.3,5.4 z m 7.3,-13.8 c -3.3,0.1 -4,0.1 -7.7,0.1 l -0.2,0.2 c -1.8,5.9 -3,9.4 -8.1,24 l 0.2,0.3 h 5.4 l 0.2,-0.2 1.7,-6.3 h 7.5 l 1.5,6.4 0.2,0.2 c 2.6,-0.1 3.2,-0.1 6,-0.1 l 0.2,-0.3 c -4.2,-14.8 -4.7,-16.5 -6.7,-24.1 z"
   class="st0"
   inkscape:connector-curvature="0"
   style="fill:#1b2c4c" />

		<path
   id="path50"
   d="m 304.6,321.6 c -0.1,-3.4 -0.1,-6.6 -0.1,-10 0,-1.9 0,-3.8 0,-5.6 0.7,-0.1 1.4,-0.1 2.1,-0.1 2.1,0 6.3,0 6.3,7.4 0,4.3 -1.6,6.3 -2.5,7 -1.5,1.3 -3.9,1.3 -5.8,1.3 m -1.9,4.4 c 0.9,0.1 1.8,0.1 2.7,0.1 3.9,0 10.2,-0.2 12.7,-6.3 0.9,-2.3 1.1,-5.1 1.1,-6.6 0,-3.3 -0.7,-5.8 -1.6,-7.3 -2.4,-4.3 -6.8,-4.4 -10.8,-4.4 -1.6,0 -3.2,0.1 -4.8,0.1 h -3.7 l -0.2,0.2 c 0.1,3.3 0.3,6.2 0.3,15.8 0,3.4 0,5.4 -0.1,8.3 l 0.2,0.1 z"
   class="st0"
   inkscape:connector-curvature="0"
   style="fill:#1b2c4c" />

		<path
   id="path52"
   d="m 338.8,307 c 0.7,0.8 1,1.8 1.2,2.8 0.3,1.3 0.3,2.6 0.4,3.4 0.1,5.2 -1,9 -5,9 -4.8,0 -5.1,-5.6 -5.1,-8.7 0,-4.2 1,-6.3 2.6,-7.3 0.9,-0.6 1.9,-0.7 2.5,-0.7 1.3,-0.1 2.6,0.5 3.4,1.5 m 5.5,-2.3 c -0.6,-0.8 -1.3,-1.4 -2.1,-1.9 -1.8,-1.2 -4.2,-1.8 -6.6,-1.8 -2.2,0 -4.4,0.4 -6.2,1.5 -4.3,2.4 -5,6.4 -5.3,7.9 -0.2,1.2 -0.3,2.4 -0.3,3.5 0,2.4 0.3,6.8 3.5,9.8 2.7,2.5 6.3,2.8 8,2.8 2.7,0 5.4,-0.7 7.4,-2.3 3.4,-2.8 4.1,-7.6 4.1,-10.5 0.1,-5.4 -1.7,-7.9 -2.5,-9"
   class="st0"
   inkscape:connector-curvature="0"
   style="fill:#1b2c4c" />

		<path
   id="path54"
   d="m 361.9,311.1 c -2.9,-1.2 -4.4,-1.8 -4.4,-3.4 0,-1 1,-2.4 3.3,-2.4 2.6,0 4.2,1.1 5.5,2 l 0.3,-0.1 0.3,-4.6 -0.2,-0.2 c -1.5,-0.6 -3.1,-1.3 -6.4,-1.3 -6.5,0 -8.8,3.7 -8.8,7.4 0,4.2 3.3,5.8 5.2,6.6 l 1.1,0.5 c 2.4,1 4.2,1.9 4.2,3.7 0,1.3 -1.2,2.9 -4.2,2.9 -3.2,0 -4.9,-1.4 -5.9,-2.2 l -0.4,0.1 -0.2,4.9 0.2,0.3 c 0.4,0.1 0.7,0.3 1.1,0.4 0.8,0.3 2.8,0.9 5.4,0.9 1,0 3.7,-0.1 5.8,-1.1 2.9,-1.4 4.2,-4 4.2,-7 0,-2 -0.8,-4.1 -2.6,-5.5 -0.9,-0.7 -1.9,-1.1 -2.7,-1.5 z"
   class="st0"
   inkscape:connector-curvature="0"
   style="fill:#1b2c4c" />

		<path
   id="path56"
   d="m 398.3,321.3 c -4.1,0.2 -5,0.2 -9.5,0.2 l -0.1,-6.1 h 8.1 l 0.2,-0.2 0.2,-3.9 -0.2,-0.2 -8.4,0.1 v -5.5 c 3.9,0 4.7,0 8.9,0.1 l 0.2,-0.2 0.2,-4 -0.2,-0.1 h -15.2 l -0.2,0.2 c 0.2,3.4 0.3,4.6 0.3,13.9 0,4.4 -0.1,6.5 -0.2,10.2 l 0.2,0.1 H 398 l 0.3,-0.2 0.2,-4.2 z"
   class="st0"
   inkscape:connector-curvature="0"
   style="fill:#1b2c4c" />

		<path
   id="path58"
   d="m 412,311.1 c -2.9,-1.2 -4.4,-1.8 -4.4,-3.4 0,-1 1,-2.4 3.3,-2.4 2.6,0 4.2,1.1 5.5,2 l 0.3,-0.1 0.3,-4.6 -0.2,-0.2 c -1.5,-0.6 -3,-1.3 -6.4,-1.3 -6.5,0 -8.8,3.7 -8.8,7.4 0,4.2 3.3,5.8 5.2,6.6 l 1.1,0.5 c 2.4,1 4.2,1.9 4.2,3.7 0,1.3 -1.1,2.9 -4.1,2.9 -3.1,0 -4.9,-1.4 -5.9,-2.2 l -0.4,0.1 -0.2,4.9 0.2,0.3 c 0.4,0.1 0.7,0.3 1.2,0.4 0.8,0.3 2.8,0.9 5.4,0.9 1,0 3.7,-0.1 5.8,-1.1 2.9,-1.4 4.2,-4 4.2,-7 0,-2 -0.7,-4.1 -2.6,-5.5 -0.9,-0.7 -1.8,-1.1 -2.7,-1.5 z"
   class="st0"
   inkscape:connector-curvature="0"
   style="fill:#1b2c4c" />

		<path
   id="path60"
   d="m 428.5,305.7 c 0.8,0 1.5,0 2.3,0 3.1,0.1 3.9,1.6 3.9,3.7 0,0.5 0,2.5 -1.8,3.5 -1,0.5 -2.2,0.6 -4.3,0.6 z m -1.5,-4.2 -4.4,0.1 -0.2,0.2 c 0.1,4.5 0.3,7.5 0.3,11.5 0,4.2 -0.1,8.4 -0.2,12.7 l 0.2,0.2 c 2.6,-0.1 3.1,-0.1 5.9,-0.1 l 0.2,-0.2 c -0.1,-3.8 -0.1,-4.6 -0.1,-8.2 3.9,0 8,0 10.5,-3 1,-1.2 1.8,-3.2 1.8,-5.6 0,-1.5 -0.3,-4.8 -3.2,-6.4 -2.1,-1.2 -5,-1.2 -7.6,-1.2 z"
   class="st0"
   inkscape:connector-curvature="0"
   style="fill:#1b2c4c" />

		<path
   id="path62"
   d="m 448.7,315.3 1.7,-5.9 1.2,-4.1 1,4.5 1.3,5.4 z m 7.3,-13.8 c -3.3,0.1 -4,0.1 -7.7,0.1 l -0.3,0.2 c -1.8,5.9 -2.9,9.4 -8,24 l 0.1,0.3 h 5.4 l 0.2,-0.2 1.7,-6.3 h 7.5 l 1.5,6.4 0.2,0.2 c 2.5,-0.1 3.2,-0.1 6.1,-0.1 l 0.1,-0.3 c -4.2,-14.8 -4.7,-16.5 -6.6,-24.1 z"
   class="st0"
   inkscape:connector-curvature="0"
   style="fill:#1b2c4c" />

		<path
   id="path64"
   d="m 482.7,294.5 c -0.8,0.7 -1.8,1.6 -3,1.6 -0.8,0 -1.5,-0.2 -2.2,-0.5 l -1.4,-0.4 c -0.6,-0.2 -1.2,-0.3 -1.8,-0.3 -1.6,0 -2.3,0.6 -3.1,1.2 l -0.1,0.2 v 3.7 l 0.2,0.1 c 0.8,-0.5 1.7,-1.2 3,-1.2 0.8,0 1.6,0.3 2.4,0.5 l 1,0.4 c 0.7,0.3 1.2,0.5 2,0.5 1.5,0 2.4,-0.7 3.2,-1.4 l 0.1,-0.3 v -3.9 z m 4.7,7 c -2.2,0.1 -2.8,0.1 -4.9,0.1 l -0.2,0.2 0.2,4.7 0.1,4.8 0.1,5.7 -0.1,0.1 c -0.9,-1.7 -1.1,-2 -2.9,-4.6 l -3.1,-4.6 c -2.6,-3.9 -3.1,-4.7 -4,-6.1 l -0.2,-0.2 c -2.8,0.1 -3.2,0.1 -5.7,0.1 l -0.2,0.2 c 0.2,5.4 0.3,9.4 0.3,14 0,3.4 -0.1,6.8 -0.1,10.1 l 0.2,0.2 c 2.3,-0.1 3.1,-0.1 5.1,-0.1 l 0.2,-0.2 -0.4,-7.6 -0.1,-4.2 -0.2,-4.6 0.1,-0.1 c 1.6,2.7 2.1,3.6 4.5,7.1 l 3.4,5.1 3.1,4.5 0.2,0.2 c 2.1,-0.1 2.7,-0.1 4.6,-0.1 l 0.2,-0.2 c 0,-5 -0.1,-8.4 -0.1,-12.6 0,-3.9 0.1,-7.7 0.1,-11.6 z"
   class="st0"
   inkscape:connector-curvature="0"
   style="fill:#1b2c4c" />

		<path
   id="path66"
   d="m 507.1,307 c 0.7,0.8 1,1.8 1.2,2.8 0.3,1.3 0.3,2.6 0.4,3.4 0.1,5.2 -1,9 -5,9 -4.8,0 -5.1,-5.6 -5.1,-8.7 0,-4.2 1,-6.3 2.6,-7.3 0.9,-0.6 1.9,-0.7 2.5,-0.7 1.3,-0.1 2.5,0.5 3.4,1.5 m 5.4,-2.3 c -0.6,-0.8 -1.3,-1.4 -2.1,-1.9 -1.8,-1.2 -4.2,-1.8 -6.6,-1.8 -2.1,0 -4.3,0.4 -6.2,1.5 -4.2,2.4 -5,6.4 -5.3,7.9 -0.2,1.2 -0.3,2.4 -0.3,3.5 0,2.4 0.3,6.8 3.5,9.8 2.6,2.5 6.3,2.8 8,2.8 2.7,0 5.4,-0.7 7.4,-2.3 3.4,-2.8 4.1,-7.6 4.1,-10.5 0,-5.4 -1.6,-7.9 -2.5,-9"
   class="st0"
   inkscape:connector-curvature="0"
   style="fill:#1b2c4c" />

		<path
   id="path68"
   d="m 535.1,321.3 c -3.8,0.2 -6.8,0.3 -7.9,0.3 h -0.7 c -0.1,-9.2 0,-11.6 0.3,-19.9 l -0.2,-0.2 c -3,0.1 -3.8,0.1 -6.2,0.1 l -0.2,0.2 c 0.1,2.8 0.2,3.6 0.2,7.7 0,5.5 0,10.9 0,16.4 l 0.2,0.2 c 6.8,-0.1 8,-0.1 14.3,-0.1 l 0.2,-0.2 0.3,-4.4 z"
   class="st0"
   inkscape:connector-curvature="0"
   style="fill:#1b2c4c" />

		<path
   id="path70"
   d="m 555,321.3 c -4.1,0.2 -5.1,0.2 -9.5,0.2 l -0.1,-6.1 h 8.1 l 0.3,-0.2 0.2,-3.9 -0.2,-0.2 -8.4,0.1 v -5.5 c 3.9,0 4.7,0 8.9,0.1 l 0.2,-0.2 0.2,-4 -0.2,-0.1 h -15.2 l -0.2,0.2 c 0.2,3.4 0.3,4.6 0.3,13.9 0,4.4 -0.1,6.5 -0.2,10.2 l 0.2,0.1 h 15.3 l 0.3,-0.2 0.2,-4.2 z"
   class="st0"
   inkscape:connector-curvature="0"
   style="fill:#1b2c4c" />

		<path
   id="path72"
   d="m 568.6,311.1 c -2.9,-1.2 -4.4,-1.8 -4.4,-3.4 0,-1 1,-2.4 3.3,-2.4 2.6,0 4.2,1.1 5.5,2 l 0.3,-0.1 0.3,-4.6 -0.2,-0.2 c -1.5,-0.6 -3.1,-1.3 -6.4,-1.3 -6.5,0 -8.8,3.7 -8.8,7.4 0,4.2 3.2,5.8 5.2,6.6 l 1.2,0.5 c 2.4,1 4.2,1.9 4.2,3.7 0,1.3 -1.1,2.9 -4.1,2.9 -3.2,0 -4.9,-1.4 -5.9,-2.2 l -0.4,0.1 -0.2,4.9 0.2,0.3 c 0.4,0.1 0.7,0.3 1.1,0.4 0.8,0.3 2.8,0.9 5.4,0.9 1,0 3.7,-0.1 5.8,-1.1 2.9,-1.4 4.1,-4 4.1,-7 0,-2 -0.8,-4.1 -2.6,-5.5 -0.9,-0.7 -1.8,-1.1 -2.7,-1.5 z"
   class="st0"
   inkscape:connector-curvature="0"
   style="fill:#1b2c4c" />

	</g>

</g>
  </g>
  <style
     id="style10"
     type="text/css">
	.st0{fill:#1B2C4C;}
	.st1{fill:#8E8E90;}
</style>
</svg>
